<svg width="19" height="18" viewBox="0 0 19 18" fill="none" xmlns="http://www.w3.org/2000/svg">
<path d="M0.6875 9C0.6875 4.02944 4.71694 0 9.6875 0C14.6581 0 18.6875 4.02944 18.6875 9C18.6875 13.9706 14.6581 18 9.6875 18C4.71694 18 0.6875 13.9706 0.6875 9Z" fill="white"/>
<path fill-rule="evenodd" clip-rule="evenodd" d="M9.92188 3.63438C10.0719 3.4844 10.2753 3.40015 10.4875 3.40015C10.6996 3.40015 10.9031 3.4844 11.0531 3.63438L15.8531 8.43438C16.0031 8.5844 16.0873 8.78784 16.0873 8.99998C16.0873 9.21211 16.0031 9.41555 15.8531 9.56558L11.0531 14.3656C10.9022 14.5113 10.7001 14.5919 10.4904 14.5901C10.2806 14.5883 10.0799 14.5042 9.93162 14.3558C9.78329 14.2075 9.69916 14.0069 9.69734 13.7971C9.69551 13.5873 9.77615 13.3853 9.92188 13.2344L13.3563 9.79998H4.08748C3.8753 9.79998 3.67182 9.71569 3.52179 9.56566C3.37176 9.41563 3.28748 9.21215 3.28748 8.99998C3.28748 8.7878 3.37176 8.58432 3.52179 8.43429C3.67182 8.28426 3.8753 8.19998 4.08748 8.19998H13.3563L9.92188 4.76558C9.7719 4.61555 9.68765 4.41211 9.68765 4.19998C9.68765 3.98784 9.7719 3.7844 9.92188 3.63438Z" fill="#008280"/>
</svg>
