<svg width="15" height="16" viewBox="0 0 15 16" fill="none" xmlns="http://www.w3.org/2000/svg">
<g clip-path="url(#clip0_2_2518)">
<path d="M14.7505 9.99843L13.0353 8.77586C13.0353 8.52508 13.1289 8.28997 13.1289 8.03919C13.144 7.7899 13.1122 7.53999 13.0353 7.30251L14.922 5.82915L13.1289 2.69436L10.9148 3.52508C10.5295 3.20535 10.0915 2.95601 9.62058 2.7884L9.35551 0.5H5.6289L5.22349 2.7884C4.79757 3.00711 4.38612 3.25318 3.99168 3.52508L1.79314 2.63166L0 5.82915L1.79314 7.30251C1.79314 7.55329 1.79314 7.7884 1.79314 8.03919C1.75489 8.28324 1.75489 8.53181 1.79314 8.77586L0.233888 9.99843C0.14911 10.0459 0.0705433 10.1038 0 10.1708L1.79314 13.3056L3.99168 12.3966C4.37645 12.7254 4.82136 12.9756 5.30146 13.1332L5.6289 15.4373H9.35551C9.33367 15.3287 9.33367 15.2168 9.35551 15.1082L9.69854 13.1959C10.163 13.0043 10.6028 12.7569 11.0083 12.4592L13.2069 13.3683L15 10.2335C14.9287 10.1433 14.8447 10.0641 14.7505 9.99843ZM7.5 10.2962C7.04667 10.2962 6.60351 10.1611 6.22658 9.90793C5.84964 9.65476 5.55586 9.29491 5.38238 8.87389C5.20889 8.45288 5.1635 7.98961 5.25194 7.54266C5.34038 7.09571 5.55868 6.68517 5.87924 6.36294C6.1998 6.04071 6.60821 5.82126 7.05283 5.73236C7.49746 5.64346 7.95832 5.68909 8.37715 5.86348C8.79597 6.03787 9.15395 6.33318 9.40581 6.71209C9.65767 7.09099 9.7921 7.53646 9.7921 7.99216C9.7921 8.29474 9.73281 8.59435 9.61762 8.87389C9.50243 9.15344 9.3336 9.40744 9.12076 9.62139C8.90792 9.83534 8.65524 10.0051 8.37715 10.1209C8.09906 10.2366 7.801 10.2962 7.5 10.2962Z" fill="white"/>
</g>
<defs>
<clipPath id="clip0_2_2518">
<rect width="15" height="15" fill="white" transform="translate(0 0.5)"/>
</clipPath>
</defs>
</svg>
