<svg width="29" height="28" viewBox="0 0 29 28" fill="none" xmlns="http://www.w3.org/2000/svg">
<path fill-rule="evenodd" clip-rule="evenodd" d="M6.51024 6.01023C6.77278 5.74777 7.12881 5.60033 7.50004 5.60033C7.87127 5.60033 8.2273 5.74777 8.48984 6.01023L14.5 12.0204L20.5102 6.01023C20.6394 5.87651 20.7939 5.76986 20.9647 5.69649C21.1355 5.62311 21.3192 5.58449 21.5051 5.58288C21.691 5.58126 21.8753 5.61668 22.0474 5.68708C22.2194 5.75747 22.3757 5.86143 22.5072 5.99287C22.6386 6.12432 22.7426 6.28064 22.813 6.45269C22.8834 6.62475 22.9188 6.8091 22.9172 6.99499C22.9156 7.18088 22.877 7.36459 22.8036 7.53539C22.7302 7.7062 22.6236 7.86068 22.4898 7.98983L16.4796 14L22.4898 20.0102C22.7449 20.2743 22.886 20.6279 22.8828 20.995C22.8796 21.3621 22.7324 21.7132 22.4728 21.9728C22.2132 22.2323 21.8621 22.3796 21.495 22.3828C21.1279 22.386 20.7743 22.2448 20.5102 21.9898L14.5 15.9796L8.48984 21.9898C8.2258 22.2448 7.87216 22.386 7.50508 22.3828C7.13801 22.3796 6.78687 22.2323 6.5273 21.9728C6.26773 21.7132 6.12049 21.3621 6.1173 20.995C6.11411 20.6279 6.25522 20.2743 6.51024 20.0102L12.5204 14L6.51024 7.98983C6.24778 7.72729 6.10034 7.37126 6.10034 7.00003C6.10034 6.6288 6.24778 6.27277 6.51024 6.01023Z" fill="white"/>
</svg>
