<svg width="25" height="24" viewBox="0 0 25 24" fill="none" xmlns="http://www.w3.org/2000/svg">
<path fill-rule="evenodd" clip-rule="evenodd" d="M6.85537 8.7516C7.08041 8.52663 7.38557 8.40026 7.70377 8.40026C8.02197 8.40026 8.32714 8.52663 8.55217 8.7516L12.5038 12.7032L16.4554 8.7516C16.5661 8.63699 16.6985 8.54557 16.8449 8.48268C16.9913 8.41979 17.1488 8.38668 17.3081 8.3853C17.4674 8.38391 17.6254 8.41428 17.7729 8.47461C17.9204 8.53495 18.0544 8.62405 18.167 8.73673C18.2797 8.8494 18.3688 8.98338 18.4292 9.13085C18.4895 9.27833 18.5199 9.43635 18.5185 9.59568C18.5171 9.75502 18.484 9.91248 18.4211 10.0589C18.3582 10.2053 18.2668 10.3377 18.1522 10.4484L13.3522 15.2484C13.1271 15.4734 12.822 15.5997 12.5038 15.5997C12.1856 15.5997 11.8804 15.4734 11.6554 15.2484L6.85537 10.4484C6.63041 10.2234 6.50403 9.9182 6.50403 9.6C6.50403 9.2818 6.63041 8.97663 6.85537 8.7516Z" fill="white"/>
</svg>
