<svg width="21" height="20" viewBox="0 0 21 20" fill="none" xmlns="http://www.w3.org/2000/svg">
<path fill-rule="evenodd" clip-rule="evenodd" d="M5.87116 7.29302C6.05868 7.10555 6.31299 7.00023 6.57816 7.00023C6.84332 7.00023 7.09763 7.10555 7.28516 7.29302L10.5782 10.586L13.8712 7.29302C13.9634 7.19751 14.0737 7.12133 14.1958 7.06892C14.3178 7.01651 14.449 6.98892 14.5818 6.98777C14.7145 6.98662 14.8462 7.01192 14.9691 7.0622C15.092 7.11248 15.2037 7.18673 15.2976 7.28062C15.3914 7.37452 15.4657 7.48617 15.516 7.60907C15.5663 7.73196 15.5916 7.86364 15.5904 7.99642C15.5893 8.1292 15.5617 8.26042 15.5093 8.38242C15.4568 8.50443 15.3807 8.61477 15.2852 8.70702L11.2852 12.707C11.0976 12.8945 10.8433 12.9998 10.5782 12.9998C10.313 12.9998 10.0587 12.8945 9.87116 12.707L5.87116 8.70702C5.68368 8.51949 5.57837 8.26518 5.57837 8.00002C5.57837 7.73486 5.68368 7.48055 5.87116 7.29302Z" fill="white"/>
</svg>
